<svg xmlns="http://www.w3.org/2000/svg" width="1240" height="1706.667" preserveAspectRatio="xMidYMid meet" version="1.0" viewBox="0 0 930 1280"><metadata>Created by potrace 1.15, written by Peter Selinger 2001-2017</metadata><g fill="#fff" stroke="none"><path d="M4435 12794 c-325 -32 -525 -72 -785 -156 -344 -111 -675 -289 -980 -524 -144 -111 -409 -374 -525 -519 -633 -796 -856 -1830 -605 -2811 186 -726 621 -1359 1242 -1805 64 -46 144 -101 177 -122 54 -33 61 -41 61 -70 0 -17 -5 -131 -10 -252 -61 -1342 -258 -2190 -614 -2631 -137 -170 -308 -275 -551 -338 -55 -15 -210 -46 -345 -71 -135 -24 -283 -53 -330 -64 -334 -78 -582 -222 -764 -442 -214 -260 -333 -603 -381 -1099 -22 -230 -34 -1468 -15 -1550 38 -165 152 -283 313 -326 44 -12 731 -14 4327 -14 2845 0 4290 4 4319 11 158 36 283 164 321 329 19 79 7 1330 -15 1550 -73 746 -312 1178 -784 1414 -165 83 -328 129 -686 191 -318 55 -439 88 -581 155 -362 174 -611 622 -764 1380 -90 444 -151 1030 -166 1585 l-5 210 133 87 c187 121 330 238 498 407 322 322 548 661 714 1068 213 523 282 1111 196 1676 -128 840 -572 1584 -1251 2094 -448 336 -962 544 -1533 619 -106 14 -527 26 -611 18z" transform="translate(0.000000,1280.000000) scale(0.100000,-0.100000)"/></g></svg>